<svg xmlns="http://www.w3.org/2000/svg" viewBox="0 0 64 64">
  <defs>
    <radialGradient id="bg" cx="50%" cy="45%" r="72%">
      <stop offset="0" stop-color="#111f40"/>
      <stop offset="1" stop-color="#050912"/>
    </radialGradient>
    <radialGradient id="planet" cx="36%" cy="32%" r="78%">
      <stop offset="0" stop-color="#c2e1ff"/>
      <stop offset="0.35" stop-color="#4f9dff"/>
      <stop offset="0.75" stop-color="#2556c8"/>
      <stop offset="1" stop-color="#0f2459"/>
    </radialGradient>
    <radialGradient id="halo" cx="50%" cy="50%" r="50%">
      <stop offset="0.55" stop-color="#3d8bfd" stop-opacity="0.5"/>
      <stop offset="1" stop-color="#3d8bfd" stop-opacity="0"/>
    </radialGradient>
    <linearGradient id="ring" x1="0" y1="0" x2="1" y2="0">
      <stop offset="0" stop-color="#7dd3fc"/>
      <stop offset="1" stop-color="#b69cff"/>
    </linearGradient>
  </defs>
  <rect width="64" height="64" rx="14" fill="url(#bg)"/>
  <circle cx="30" cy="36" r="25" fill="url(#halo)"/>
  <g transform="rotate(-18 30 36)">
    <ellipse cx="30" cy="36" rx="25" ry="7.5" fill="none" stroke="url(#ring)" stroke-width="4" opacity="0.45"/>
  </g>
  <circle cx="30" cy="36" r="15" fill="url(#planet)"/>
  <g transform="rotate(-18 30 36)">
    <path d="M5 36 A25 7.5 0 0 0 55 36" fill="none" stroke="url(#ring)" stroke-width="4" stroke-linecap="round"/>
  </g>
  <g transform="translate(50 13) rotate(-45)">
    <path d="M-8 0 L-2.6 -1.7 L-2.6 1.7 Z" fill="#ff9a46"/>
    <path d="M-5 0 L-2.6 -0.9 L-2.6 0.9 Z" fill="#ffe2a0"/>
    <path d="M5.5 0 L1.6 -1.3 L-0.8 -4.2 L-2.6 -3.8 L-1.8 -1.3 L-3 -1.1 L-3 1.1 L-1.8 1.3 L-2.6 3.8 L-0.8 4.2 L1.6 1.3 Z" fill="#ffffff"/>
  </g>
</svg>
